# xmcd CD database file
#
# Track frame offsets:
#	150
#	54824
#	86399
#	106724
#
# Disc length: 2817 seconds
#
# Revision: 16
# Processed by: cddbd v1.5.2PL0 Copyright (c) Steve Scherf et al.
# Submitted via: CDex 1.51
#
DISCID=1d0aff04
DTITLE=Chick Corea - Return to Forever
DYEAR=1972
DGENRE=Jazz
TTITLE0=Return to Forever
TTITLE1=Crystal Silence
TTITLE2=What Game Shall We Play Today
TTITLE3=Sometime Ago - La Fiesta
EXTD=Chick Corea - Electric Piano\nJoe Farrell - Flutes, Soprano Saxophone\nFlora Purim - Vocal, Percussion\nStan Clarke - Electric Bass, Double Bass\nAirto Moreira - Drums, Percussion\n\nRecorded February 2 and 3, 1972 New York YEAR: 1972
EXTT0=
EXTT1=
EXTT2=
EXTT3=
PLAYORDER=
